<svg id="visual" viewBox="0 0 960 540" width="960" height="540" xmlns="http://www.w3.org/2000/svg" xmlns:xlink="http://www.w3.org/1999/xlink" version="1.1"><rect x="0" y="0" width="960" height="540" fill="#fff"></rect><defs><linearGradient id="grad1_0" x1="43.8%" y1="0%" x2="100%" y2="100%"><stop offset="14.444444444444446%" stop-color="#ffffff" stop-opacity="1"></stop><stop offset="85.55555555555554%" stop-color="#ffffff" stop-opacity="1"></stop></linearGradient></defs><defs><linearGradient id="grad2_0" x1="0%" y1="0%" x2="56.3%" y2="100%"><stop offset="14.444444444444446%" stop-color="#ffffff" stop-opacity="1"></stop><stop offset="85.55555555555554%" stop-color="#ffffff" stop-opacity="1"></stop></linearGradient></defs><g transform="translate(960, 0)"><path d="M0 405C-70.9 394.5 -141.9 383.9 -202.5 350.7C-263.1 317.6 -313.5 261.7 -345.5 199.5C-377.6 137.3 -391.3 68.6 -405 0L0 0Z" fill="#F0ECE5"></path></g><g transform="translate(0, 540)"><path d="M0 -405C72 -395.1 143.9 -385.1 202.5 -350.7C261.1 -316.4 306.2 -257.5 337.7 -195C369.3 -132.5 387.1 -66.2 405 0L0 0Z" fill="#F0ECE5"></path></g></svg>